<?xml version="1.0" encoding="UTF-8" standalone="no"?>
<svg
   height="1914.0134"
   width="1263.4064"
   version="1.1"
   id="svg212"
   sodipodi:docname="20220807205345!Flag-map_of_Rhode_Island.svg"
   inkscape:version="1.1.1 (3bf5ae0d25, 2021-09-20)"
   xmlns:inkscape="http://www.inkscape.org/namespaces/inkscape"
   xmlns:sodipodi="http://sodipodi.sourceforge.net/DTD/sodipodi-0.dtd"
   xmlns:xlink="http://www.w3.org/1999/xlink"
   xmlns="http://www.w3.org/2000/svg"
   xmlns:svg="http://www.w3.org/2000/svg">
  <sodipodi:namedview
     id="namedview214"
     pagecolor="#ffffff"
     bordercolor="#666666"
     borderopacity="1.0"
     inkscape:pageshadow="2"
     inkscape:pageopacity="0.0"
     inkscape:pagecheckerboard="0"
     inkscape:deskcolor="#d1d1d1"
     showgrid="false"
     inkscape:zoom="0.15999999"
     inkscape:cx="240.62501"
     inkscape:cy="1109.3751"
     inkscape:window-width="1366"
     inkscape:window-height="697"
     inkscape:window-x="-8"
     inkscape:window-y="-8"
     inkscape:window-maximized="1"
     inkscape:current-layer="svg212" />
  <defs
     id="defs183">
    <path
       id="star"
       transform="matrix(40,0,0,40,0,-205)"
       d="M 0,-1 0.58779,0.80902 -0.95106,-0.30902 H 0.95106 L -0.58779,0.80902 Z" />
    <clipPath
       id="state_clip_path">
      <g
         id="state_outline">
        <path
           id="1728"
           d="m -1087,-3246 1075,-37 906,-34 184,-7 317,-11 594,-22 388,-6 -6,379 -7,469 -4,570 363,-77 10,51 -10,30 -10,40 5,56 21,101 10,60 16,76 5,40 -5,40 -15,46 -26,76 -5,20 10,40 11,25 v 25 l -15,31 -16,25 -25,40 v 36 l -5,40 15,50 16,41 v 106 l 10,30 16,20 25,30 26,30 10,36 10,30 16,30 10,20 66,38 282,160 190,109 283,402 v 41 l -16,56 -15,71 -71,30 -21,-10 -46,-71 -41,-105 -31,15 v 35 l -5,40 41,86 77,111 47,116 -10,75 -31,26 -72,40 -30,41 5,45 -26,30 -10,76 -51,15 -36,-45 -10,-91 -52,-50 -30,-66 -62,-10 -56,116 -15,36 -15,50 h -46 l -11,-20 -15,-10 -5,-40 v -91 l -1,-71 21,-45 56,-56 25,-35 5,-50 -10,-56 v -75 l 15,-46 26,-60 15,-31 36,-70 15,-41 v -45 l 5,-61 v -50 l 15,-40 -10,-56 -36,-91 -41,31 -26,35 -10,81 -20,5 -26,-10 -41,-15 -41,-50 -21,-61 36,-66 -41,-50 h -51 l -10,51 -5,50 -5,45 41,81 97,76 67,75 21,91 -41,45 -16,41 -5,60 -20,25 -20,-10 -16,-85 -26,-46 -46,-35 -46,-20 -51,-5 -36,5 -36,-10 -20,-30 v -35 l -16,-66 -41,-60 -36,-41 -20,-50 -57,10 v -80 l -26,-66 -41,-15 -25,-35 35,-101 -20,-76 -26,-90 -36,-91 -82,-86 -10,-15 15,-70 41,-86 56,-111 35,-86 5,-81 5,-65 -51,-56 -46,86 -5,40 -10,46 v 40 l -25,41 -21,55 -41,141 -30,6 -51,-26 -16,21 52,126 15,45 31,30 36,15 25,35 16,26 -5,30 -36,35 -5,56 10,75 16,71 10,55 -5,36 -5,15 31,50 v 46 l 15,35 47,10 10,20 -46,40 5,41 5,50 -15,66 31,45 36,30 51,20 h 138 l 5,25 -143,51 5,35 5,25 -4,71 5,81 -26,45 -41,51 -10,50 11,56 -26,80 -41,5 -61,-55 -31,-40 25,-86 -30,-30 -26,25 -56,-25 -16,-66 -20,16 5,55 -138,-5 -103,-10 -102,-35 10,126 1,61 v 50 l 30,25 36,-5 46,-30 26,-5 31,-10 20,35 26,15 36,15 56,20 -10,66 v 30 l 5,35 10,61 -4,75 20,56 10,35 6,66 h -67 l -25,30 76,30 31,71 -61,40 -46,46 21,45 81,5 16,86 -46,55 -77,25 -107,31 -67,35 -61,-30 -26,51 21,65 51,20 16,76 66,45 21,30 -15,25 v 21 l 10,35 25,-5 16,5 -21,25 57,207 11,171 -56,116 v 182 l 31,70 -10,101 h -62 l -20,20 -10,66 36,101 -36,50 -20,86 -56,15 -87,51 -21,25 -10,30 v 81 l 21,106 -20,75 -46,66 -36,65 -67,91 -51,76 -20,61 -20,50 20,86 -15,35 -56,-15 -31,-40 -26,-36 -51,-25 -56,-30 -31,-15 -5,-35 10,-30 20,-16 31,-35 36,-20 20,-20 10,-16 21,-20 5,-35 -10,-40 10,-26 v -30 l -11,-20 -25,-35 5,-66 -5,-55 -77,10 v 56 l -26,65 -15,66 -36,106 1,30 -31,30 -10,30 10,46 -5,55 -51,5 -56,21 -41,10 -16,5 -71,-10 h -31 l -67,10 -56,10 -15,5 -31,11 -36,20 -51,15 -41,5 -10,5 -16,5 h -15 l -36,21 H 457 l -108,20 -56,30 -112,51 -52,20 -35,15 -169,66 -205,71 -107,91 -77,20 -77,11 h -72 l -122,25 -93,-15 -30,15 -31,-5 h -31 l -36,16 -76,20 -87,15 -220,46 -149,61 -112,85 -31,10 -10,-60 h -36 l -72,20 -72,36 -20,-10 -15,-15 10,-56 30,-20 82,-5 103,-5 46,-61 15,-5 20,-66 v -31 l 41,-30 62,-45 35,-25 21,-25 10,-35 v -31 l -10,-30 -14,-31 -22,-44 -10,-46 -11,-35 5,-35 10,-26 11,-45 10,-60 5,-61 -10,-30 -11,-30 -10,-21 -18,-19 -18,-31 v -30 l -2,-25 v -31 l -5,-25 6,-20 11,-25 10,-20 16,-10 20,-11 20,-10 62,-40 20,-15 26,-20 25,-11 149,46 21,-32 13,-358 55,-1310 v -166 l 4,-171 10,-439 v -15 l -11,-600 -6,-323 -25,-1024 -20,-1144 -4,-213 -2,-236 z" />
        <path
           id="1740"
           d="m 3895,416 26,41 164,40 -5,30 363,95 11,80 -31,132 5,35 11,25 v 50 l -16,31 -15,20 -15,25 -10,25 -5,36 -5,35 -5,45 5,46 10,35 26,45 46,56 84,846 16,197 5,55 -46,6 -36,5 -31,16 -51,25 -10,45 -5,56 -36,40 -46,31 -56,15 -25,30 h -26 l -31,36 -25,35 v 45 l -36,26 -56,5 -36,15 -36,30 -36,20 -35,-15 25,-75 25,-71 16,-91 -26,-110 -36,-46 -36,-60 -31,-35 -10,-56 35,-45 21,-46 -10,-20 -42,-40 -10,-30 10,-46 -25,-60 5,-35 30,-76 -20,-35 -82,-46 -1,-40 v -65 l -25,-56 30,-10 57,20 15,-35 -10,-106 -1,-25 -5,-51 -5,-20 -20,-20 25,-61 20,-40 21,-20 10,-20 v -36 l -16,-30 -20,-30 -26,-40 v -66 l -10,-106 v -25 l 10,-81 -6,-55 16,-71 15,-55 10,-51 15,-121 36,-60 z" />
        <path
           id="1742"
           d="m 2771,1478 -10,-85 v -121 l 35,-86 20,-106 -10,-76 -31,-20 -82,-5 -77,-80 11,-71 25,-30 56,-46 -5,-35 -31,-96 21,-50 51,-5 20,25 31,86 -10,45 v 91 l 26,50 164,96 56,50 26,35 15,81 -76,222 -97,121 -66,40 z" />
        <path
           id="1743"
           d="m 2860,2396 5,-61 -10,-20 v -30 l 10,-51 -36,-30 15,-65 92,30 21,-51 -5,-75 10,-137 25,-101 46,-90 30,-41 46,-70 51,-162 15,-55 5,-21 67,-111 20,-196 36,-41 51,-15 41,-86 56,-50 158,-66 72,-91 25,10 1,111 20,60 v 91 l -15,56 -20,20 -46,10 -87,30 -5,121 -36,192 83,141 -15,86 -5,116 15,80 1,162 56,50 -20,126 -26,86 -56,76 -20,70 -26,81 26,50 36,51 -15,35 -36,91 -36,-5 10,-51 11,-25 -6,-10 -5,-15 -15,-15 -31,-30 -87,-35 -51,15 v 35 l -26,35 -56,-10 -31,-45 -102,21 -15,85 v 106 l -51,56 -36,121 -36,-15 -87,-66 -36,31 -61,45 -46,20 -46,-25 -36,21 -46,35 -31,-30 -10,-56 -31,-35 10,-50 67,-51 56,-50 66,-86 11,80 20,10 31,-5 41,-35 77,-41 -16,-75 -26,-66 z" />
        <path
           id="1744"
           d="m 3169,807 15,-25 46,-21 46,20 v 15 l 1,36 -11,10 -5,20 -20,25 -36,-5 -41,-25 z" />
        <path
           id="1749"
           d="m 2227,2972 -26,-46 10,-45 31,-76 5,-70 -32,-202 21,-45 97,25 56,-11 -30,-45 5,-40 20,-51 -51,-70 -52,-161 51,-192 25,-187 61,-141 46,-25 52,10 41,70 5,71 5,50 5,56 -45,111 5,262 -15,25 10,25 51,35 v 26 l -30,50 -31,46 -5,55 57,121 -31,50 -97,11 -51,-10 -10,40 -11,25 -5,46 -15,40 h -41 l -5,81 -25,40 z" />
        <path
           id="1763"
           d="m 1009,6184 -26,36 -81,40 -82,10 -92,6 -77,15 -118,51 -67,15 -46,-66 10,-40 v -141 l 26,-151 66,-51 41,-60 20,-21 36,56 72,55 67,-40 -21,-66 -72,-100 20,-21 31,-50 5,-66 -26,-191 36,-5 159,100 11,182 -36,156 5,96 62,121 z" />
      </g>
    </clipPath>
    <path
       id="a"
       transform="matrix(40,0,0,40,0,-205)"
       d="M 0,-1 0.58779,0.80902 -0.95106,-0.30902 H 0.95106 L -0.58779,0.80902 Z" />
    <clipPath
       clipPathUnits="userSpaceOnUse"
       id="clipPath1037">
      <path
         style="color:#000000;opacity:1;fill:#00ff00;stroke-width:254.649;stroke-linejoin:round;-inkscape-stroke:none"
         d="m 673.61234,-254.80612 -76.40301,1.18149 -116.96748,4.33213 -62.42203,2.16606 -36.23236,1.37841 -178.40497,6.6951 -211.68355,7.28586 1.18149,109.48472 0.39382,46.471922 0.78766,41.942891 3.93831,225.270697 4.92287,201.64092 1.18149,63.60353 2.16607,118.14897 v 2.95372 l -1.96916,86.44567 -0.78767,33.67246 v 32.68788 l -10.83031,257.95857 -2.559886,70.49562 -4.13522,6.3013 -29.340325,-9.0581 -4.922878,2.1661 -5.119791,3.9383 -3.938297,2.9537 -12.208726,7.8766 -3.938298,1.9692 -3.938299,2.166 -3.150639,1.9691 -1.969151,3.9383 -2.166064,4.9229 -1.18149,3.9383 0.984575,4.9228 v 6.1045 l 0.393829,4.9228 v 5.9075 l 3.544471,6.1043 3.544469,3.7415 1.96915,4.1352 2.166063,5.9074 1.969151,5.9074 -0.984575,12.0118 -1.96915,11.8149 -2.166065,8.8613 -1.96915,5.1197 -0.984574,6.892 2.166065,6.8921 1.969149,9.058 4.332129,8.6643 2.756809,6.1043 1.969154,5.9075 v 6.1043 l -1.969154,6.8922 -4.135213,4.9228 -6.892024,4.9229 -12.208727,8.8611 -8.073513,5.9075 v 6.1043 l -3.938305,12.9964 -2.95372,0.9845 -9.05809,12.0118 -20.28224,0.9847 -16.14702,0.9846 -5.90745,3.9382 -1.96915,11.0272 2.95372,2.9538 3.9383,1.9692 14.17788,-7.0889 14.17788,-3.9385 h 7.08893 l 1.96915,11.8151 6.10437,-1.9693 22.054471,-16.7376 29.340334,-12.0119 43.321279,-9.0582 17.131606,-2.9537 14.96553,-3.9381 7.08894,-3.1508 h 6.10438 l 6.10435,0.9846 5.90745,-2.9537 18.31309,2.9537 24.02361,-4.9229 h 14.17788 l 15.16246,-2.166 15.16245,-3.9383 21.0699,-17.9193 40.36755,-13.9809 33.27865,-12.9965 6.89201,-2.9537 10.23958,-3.9382 22.05448,-10.0428 11.02723,-5.9073 21.26683,-3.9383 h 20.08532 l 7.08894,-4.1353 h 2.95372 l 3.15063,-0.9845 1.96916,-0.9845 8.07352,-0.9848 10.04266,-2.9536 7.08893,-3.9383 6.10436,-2.1661 2.95372,-0.9845 11.02724,-1.9692 13.19331,-1.9693 h 6.10437 l 13.98096,1.9693 3.15063,-0.9846 8.07352,-1.9692 11.02724,-4.1351 10.04266,-0.9846 0.98458,-10.8304 -1.96917,-9.0581 1.96917,-5.9073 6.10435,-5.9075 -0.19691,-5.9075 7.08894,-20.8729 2.95373,-12.9965 5.11978,-12.7994 v -11.0273 l 15.16245,-1.969 0.98457,10.8303 -0.98457,12.9963 4.92287,6.892 2.16607,3.9383 v 5.9075 l -1.96914,5.1198 1.96914,7.8765 -0.98457,6.892 -4.13523,3.9383 -1.96914,3.1506 -3.9383,3.9385 -7.08894,3.9381 -6.10436,6.8921 -3.9383,3.1507 -1.96915,5.9074 0.98458,6.8921 6.10437,2.9537 11.02724,5.9074 10.04266,4.9229 5.11979,7.0889 6.10435,7.8766 11.02724,2.9537 2.95373,-6.8919 -3.9383,-16.9348 3.9383,-9.8458 3.9383,-12.0116 10.04266,-14.9657 13.1933,-17.9192 7.08893,-12.7995 9.05809,-12.9964 3.9383,-14.7685 -4.13521,-20.8731 v -15.95 l 1.96916,-5.9075 4.1352,-4.9229 17.13161,-10.0426 11.02724,-2.9538 3.93829,-16.93462 7.08893,-9.8459 -7.08893,-19.8884 1.96915,-12.9963 3.9383,-3.93838 h 12.20872 l 1.96916,-19.88837 -6.10437,-13.78404 v -35.83853 l 11.02725,-22.84215 -2.16607,-33.67245 -11.22416,-40.76141 4.13523,-4.92287 -3.15066,-0.98457 -4.92287,0.98457 -1.96914,-6.89202 v -4.13521 l 2.95372,-4.92288 -4.13521,-5.90744 -12.99639,-8.86118 -3.15064,-14.96554 -10.04266,-3.93829 -4.13521,-12.79949 5.11979,-10.04266 12.01181,5.90746 13.1933,-6.89202 21.06989,-6.10437 15.16245,-4.92287 9.05811,-10.83032 -3.15066,-16.93469 -15.95011,-0.98458 -4.13521,-8.86118 9.05809,-9.05808 12.01181,-7.87659 -6.10436,-13.98097 -14.96554,-5.90744 4.92287,-5.90746 h 13.19331 l -1.18149,-12.99638 -1.96915,-6.89202 -3.93831,-11.02724 0.78767,-14.76862 -1.96915,-12.01181 -0.98458,-6.89203 v -5.90745 l 1.96916,-12.99639 -11.02724,-3.9383 -7.08893,-2.95372 -5.1198,-2.95372 -3.9383,-6.89203 -6.10438,1.96916 -5.11977,0.98457 -9.05809,5.90744 -7.08894,0.98458 -5.90745,-4.92287 v -9.84576 l -0.19691,-12.0118 -1.96915,-24.81129 20.08533,6.89202 20.28222,1.96915 27.17429,0.98458 -0.98459,-10.83033 3.93831,-3.15064 3.15064,12.99639 11.02723,4.92288 5.11979,-4.92288 5.90745,5.90745 -4.92288,16.93469 6.10437,7.87659 12.01181,10.83033 8.07351,-0.98457 5.11979,-15.7532 -2.16606,-11.02723 1.96914,-9.84575 8.07352,-10.04266 5.11979,-8.86118 -0.98459,-15.95012 0.78767,-13.98095 -0.98456,-4.92287 -0.98459,-6.89203 28.15884,-10.04267 -0.98457,-4.92287 H 698.2267 l -10.04266,-3.9383 -7.08893,-5.90745 -6.10437,-8.86117 2.95373,-12.99639 -0.98458,-9.84576 -0.98457,-8.0735 9.05808,-7.87661 -1.96914,-3.93829 -9.25501,-1.96915 -2.95373,-6.89202 v -9.05809 l -6.10436,-9.84575 0.98457,-2.95372 0.98458,-7.08894 -1.96915,-10.83032 -3.15064,-13.98096 -1.96915,-14.76863 0.98458,-11.02724 7.08894,-6.89202 0.98457,-5.90744 -3.15063,-5.1198 -4.92288,-6.89201 -7.08895,-2.95372 -6.10435,-5.90745 -2.95373,-8.86118 -10.23958,-24.81128 3.15065,-4.13522 10.04266,5.1198 5.90744,-1.18151 8.07353,-27.76499 4.13521,-10.83034 4.92287,-8.0735 v -7.87661 l 1.96914,-9.05807 0.98458,-7.8766 9.0581,-16.93468 10.04266,11.02724 -0.98458,12.79946 -0.98457,15.9501 -6.89203,16.93469 -11.02724,21.85757 -8.07352,16.93468 -2.95372,13.78405 1.96916,2.95373 16.14701,16.93467 7.08895,17.91927 5.11979,17.72234 3.93829,14.96555 -6.89201,19.88839 4.92286,6.89203 8.07352,2.95373 5.11979,12.99639 v 15.75318 l 11.22414,-1.96914 3.93831,9.84575 7.08893,8.0735 8.0735,11.81491 3.15065,12.99639 v 6.89201 l 3.93833,5.90745 7.0889,1.96916 7.08898,-0.98458 10.04262,0.98458 9.05811,3.9383 9.0581,6.89203 5.11976,9.05808 3.15064,16.73776 3.93834,1.96917 3.93826,-4.92289 0.98461,-11.81489 3.15063,-8.0735 8.0735,-8.86118 -4.13525,-17.91927 -13.19325,-14.76862 -19.10073,-14.96554 -8.07359,-15.95011 0.98461,-8.86117 0.98461,-9.84575 1.96912,-10.04266 h 10.04263 l 8.07358,9.84574 -7.08898,12.99639 4.13525,12.01181 8.0735,9.84575 8.07349,2.95373 5.11976,1.96915 3.93835,-0.98457 1.96912,-15.95012 5.11977,-6.89203 8.07349,-6.10435 7.08899,17.91926 1.96913,11.02724 -2.95374,7.87658 v 9.84576 l -0.98451,12.01181 v 8.86118 l -2.95374,8.07351 -7.08898,13.78404 -2.95373,6.10437 -5.11978,11.81489 -2.95372,9.0581 v 14.76861 l 1.96921,11.02724 -0.98461,9.84575 -4.92285,6.89202 -11.02724,11.02724 -4.13525,8.86118 0.19691,13.98097 v 17.91924 l 0.98461,7.8766 2.95373,1.96915 2.16603,3.9383 h 9.05811 l 2.95373,-9.84576 2.95374,-7.08893 11.02723,-22.84212 12.20874,1.96914 5.90738,12.99638 10.23961,9.84576 1.96913,17.91926 7.08899,8.86117 10.04263,-2.95372 1.96914,-14.96554 5.11984,-5.90745 -0.98462,-8.86117 5.90751,-8.07352 14.17793,-7.87659 6.1043,-5.11979 1.9692,-14.76862 -9.2551,-22.84215 -15.16253,-21.85754 -8.07348,-16.93469 0.98462,-7.8766 v -6.89203 l 6.10436,-2.95373 8.07353,20.67609 9.0581,13.98096 4.1351,1.96914 13.9811,-5.90744 2.9537,-13.98097 3.1506,-11.02724 v -8.07351 l -55.72688,-79.15982 -37.41385,-21.46372 -55.53006,-31.5064 -12.99636,-7.48276 -1.96913,-3.93831 -3.15072,-5.90745 -1.96913,-5.90745 -1.96913,-7.08893 -5.11976,-5.90744 -4.92286,-5.90746 -3.15063,-3.93829 -1.96922,-5.90746 v -20.87297 l -3.15064,-8.07352 -2.95373,-9.84575 0.98461,-7.8766 v -7.08893 l 4.92285,-7.8766 3.15064,-4.92289 2.95374,-6.10435 v -4.92288 l -2.16604,-4.92287 -1.96921,-7.8766 0.9846,-3.93829 5.11978,-14.96554 2.95372,-9.05809 0.98461,-7.8766 -0.98461,-7.87659 -3.15063,-14.96553 -1.96913,-11.814907 -4.13524,-19.888414 -0.98452,-11.027233 1.96913,-7.876603 1.96912,-5.90745 -1.96912,-10.042663 -71.48015,15.162454 0.78767,-112.241521 1.3784,-92.353113 z m 298.91698,744.14161 -3.9384,18.11617 -7.0888,11.81491 -2.9538,23.8267 -1.9692,10.04267 -2.9537,10.83032 -3.1506,13.98097 1.1815,10.83031 -1.9692,15.95011 v 4.92288 l 1.9692,20.87299 v 12.99638 l 5.1198,7.8766 3.9383,5.90745 3.1506,5.90746 v 7.08893 l -1.9692,3.93829 -4.1352,3.93831 -3.9383,7.87659 -4.9228,12.01182 3.9382,3.93829 0.9846,3.9383 0.9846,10.04266 0.1969,4.92288 1.9692,20.87298 -2.9537,6.89202 -11.2241,-3.93829 -5.9075,1.96916 4.9229,11.02724 v 12.79946 l 0.1968,7.8766 16.147,9.05809 3.9384,6.89202 -5.9075,14.96554 -0.9846,6.89201 4.9229,11.81491 -1.9692,9.05809 1.9692,5.90745 8.2705,7.87659 1.969,3.93829 -4.1351,9.05809 -6.892,8.86118 1.9691,11.02724 6.1044,6.89207 7.089,11.81485 7.0888,9.05807 5.1199,21.66065 -3.1507,17.91929 -4.9228,13.98102 -4.923,14.76858 6.8921,2.9537 7.0889,-3.9383 7.089,-5.9074 7.08888,-2.9538 11.0273,-0.9846 7.0889,-5.11974 v -8.86118 l 4.9228,-6.89194 6.1044,-7.08898 h 5.1198 l 4.9229,-5.90751 11.0273,-2.95366 9.0581,-6.10437 7.0889,-7.87661 0.9846,-11.02725 1.969,-8.86114 10.0427,-4.9229 6.1043,-3.15063 7.0891,-0.98466 9.058,-1.18145 -0.9846,-10.83031 -3.1506,-38.79224 -16.5408,-166.59005 -9.0581,-11.02724 -5.1198,-8.86117 -1.9692,-6.89202 -0.9846,-9.0581 0.9846,-8.86117 0.9846,-6.89202 0.9846,-7.08895 1.9692,-4.92287 2.9536,-4.92287 2.9537,-3.9383 3.1507,-6.10436 v -9.84575 l -2.1661,-4.92288 -0.9846,-6.89201 6.1044,-25.99279 -2.1661,-15.75319 -71.4802,-18.70692 0.9848,-5.90745 -32.29408,-7.8766 z m -226.64916,29.53724 -10.04272,0.98458 -4.13515,9.84575 6.10428,18.90382 0.98461,6.89204 -11.02723,9.05808 -4.92288,5.90745 -2.16606,13.98097 15.16243,15.75318 16.14709,0.98458 6.10429,3.93831 1.96921,14.96553 -3.93834,20.87299 -6.89199,16.93468 v 23.82671 l 1.96913,16.73777 12.20874,5.90746 12.99636,-7.87661 19.10073,-23.8267 14.96558,-43.71512 -2.95374,-15.95011 -5.11976,-6.89204 -11.02723,-9.84574 -32.29409,-18.90383 -5.11976,-9.84576 v -17.91925 l 1.96912,-8.86117 -6.10437,-16.9347 z m 184.50936,28.35576 -14.1779,17.91926 -31.11263,12.99639 -11.02715,9.84575 -8.07363,16.93468 -10.04263,2.95373 -7.08889,8.07351 -3.93834,38.59534 -13.19327,21.85754 -0.9846,4.13523 -2.95373,10.83032 -10.04263,31.90023 -9.05811,13.78404 -5.90746,8.07351 -9.05811,17.72234 -4.92286,19.88841 -1.96913,26.97735 0.98452,14.76864 -4.13515,10.04266 -18.11621,-5.90746 -2.95374,12.79947 7.08898,5.90744 -1.96913,10.04266 v 5.90746 l 1.96913,3.9383 -0.98461,12.01181 v 20.67612 l 5.11985,12.99632 3.15064,14.76869 -15.16248,8.07353 -8.07349,6.89194 -6.10437,0.98452 -3.93835,-1.96905 -2.16603,-15.7532 -12.9964,16.93467 -11.02724,9.84579 -13.1933,10.04265 -1.96916,9.8458 6.10438,6.8919 1.96914,11.0273 6.10437,5.9074 9.05808,-6.8919 7.08893,-4.1353 9.05811,4.9229 9.0581,-3.9383 12.01175,-8.8611 7.08898,-6.1044 17.1316,12.9963 7.0889,2.9537 7.08898,-23.82663 10.04262,-11.02726 v -20.87305 l 2.95374,-16.73772 20.08534,-4.13518 6.10437,8.86115 11.02723,1.96918 5.11976,-6.89207 v -6.89197 l 10.04272,-2.95383 17.13158,6.89208 6.1044,5.90743 2.95373,2.95371 0.9845,2.95372 1.1816,1.96917 -2.1661,4.92286 -1.9692,10.04274 7.089,0.98452 7.0888,-17.91929 2.9538,-6.89196 -7.0889,-10.04273 -5.1198,-9.84567 5.1198,-15.95015 3.9383,-13.78405 11.0273,-14.96553 5.1198,-16.9347 3.9382,-24.81129 -11.0272,-9.84573 -0.1969,-31.90023 -2.9538,-15.7532 0.9846,-22.84213 2.9538,-16.93469 -16.3439,-27.76501 7.0889,-37.80767 0.9846,-23.82671 17.1315,-5.90745 9.0581,-1.96914 3.9384,-3.93831 2.9536,-11.02724 V 582.8701 l -3.9382,-11.81491 -0.197,-21.85756 z m -88.80871,10.04266 -9.05811,4.13522 -2.95374,4.92287 -0.98451,9.84574 8.07349,4.92288 7.0889,0.98458 3.93834,-4.92288 0.98451,-3.9383 2.16613,-1.96916 -0.19691,-7.08893 v -2.95373 z m -150.83688,163.2425 -9.05808,4.92287 -12.01182,27.76502 -4.92287,36.82309 -10.04266,37.80767 10.23958,31.70331 10.04266,13.78404 -3.9383,10.04267 -0.98457,7.87657 5.90745,8.86126 -11.02724,2.166 -19.10075,-4.92289 -4.13521,8.86125 6.30128,39.77683 -0.98459,13.78398 -6.10436,14.96556 -1.96914,8.8612 5.11978,9.0581 10.04267,-9.0581 4.92287,-7.8766 0.98458,-15.95016 h 8.0735 l 2.95373,-7.87656 0.98457,-9.05812 2.16607,-4.9229 1.96914,-7.8766 10.04266,1.96918 19.10076,-2.1661 6.10437,-9.84568 -11.22416,-23.82675 0.98458,-10.83032 6.10435,-9.0581 5.90745,-9.84574 v -5.11979 l -10.04266,-6.89202 -1.96914,-4.92287 2.95373,-4.92287 -0.98459,-51.59172 8.86118,-21.85757 -0.98458,-11.02724 -0.98456,-9.84574 -0.98458,-13.98096 -8.07352,-13.78406 z m -341.25362,750.04905 -7.08893,0.9846 5.11979,37.6107 -0.98458,12.9964 -6.10436,9.8459 -3.9383,4.1351 14.17787,19.6914 4.13523,12.9965 -13.19331,7.8766 -14.17788,-10.8303 -7.08894,-11.0273 -3.9383,4.1352 -8.07351,11.8151 -12.99639,10.0425 -5.11979,29.7343 v 27.7648 l -1.96915,7.8767 9.05809,12.9964 13.19331,-2.9539 23.23597,-10.0425 15.16245,-2.9537 18.11616,-1.1815 16.14703,-1.9692 15.95012,-7.8765 5.11979,-7.0889 -15.16246,-25.5991 -12.20872,-23.8267 -0.98458,-18.9037 7.08894,-30.7188 -2.16606,-35.8385 z"
         id="path1039" />
    </clipPath>
  </defs>
  <g
     id="Banner"
     style="fill:#003271;stroke:#ffffff;stroke-linejoin:round"
     transform="translate(145.32464,268.80189)" />
  <g
     id="path4103"
     style="opacity:1;stroke-width:5.78746"
     transform="matrix(0.17278729,0,0,0.17278729,75.758665,383.05478)" />
  <g
     id="g2697"
     transform="translate(159.92866,254.80612)"
     style="opacity:1"
     clip-path="url(#clipPath1037)">
    <path
       style="fill:#ffffff;stroke-width:1"
       d="M -412.50002,-275.00001 H 1247.5001 V 1811.2501 H -412.50002 Z"
       id="path2633" />
    <g
       style="fill:#fec500;stroke-width:1.5"
       id="g2641">
      <path
         style="stroke:#fec500"
         d="m 325.78,185.52 c 0,0 -1.06,118.22 -1.06,126.82 0,8.6 0,20.42 -9.5,18.27 -9.48,-2.15 -21.09,-2.15 -37.97,-13.97 -16.87,-11.82 -16.87,-13.97 -16.87,-13.97 l 15.82,-5.38 c 0,0 -15.82,-3.22 -26.37,-10.74 -10.55,-7.53 -18.99,-13.98 -18.99,-13.98 0,0 -1.05,16.13 4.22,27.95 5.28,11.82 15.82,22.57 15.82,22.57 v -13.97 c 0,0 14.77,13.97 20.05,17.2 5.27,3.22 26.37,11.82 34.8,17.2 8.44,5.36 23.90429,20.41 23.90429,20.41 0,0 16.18571,-17.2 26.73571,-21.5 10.55,-4.3 24.26,-10.74 30.59,-15.04 6.33,-4.3 23.2,-20.42 23.2,-20.42 v 18.27 c 0,0 11.6,-13.97 14.77,-23.65 3.17,-9.67 4.22,-26.87 4.22,-26.87 0,0 -8.44,6.45 -15.82,9.68 -7.39,3.22 -28.48,11.82 -28.48,11.82 l 16.87,4.3 c 0,0 -27.42,21.5 -36.91,25.8 -17.28641,8.31118 -29.54,6.44 -29.54,-4.3 0,-10.74 1.06,-136.5 1.06,-136.5 z m 1.05,-39.77 h 7.38 v 32.24 h -7.38 z"
         id="path2635" />
      <path
         style="stroke:#ffffff"
         d="m 274.1,178 c 0,0 29.53,-6.45 56.95,-6.45 27.42,0 55.9,6.44 55.9,6.44 v 11.83 c 0,0 -37.97,5.37 -60.12,5.37 -22.15,0 -52.73822,-6.45 -52.73822,-6.45 z"
         id="path2637" />
      <path
         style="fill-rule:evenodd;stroke:#ffffff"
         d="m 347.91995,172.08 c 0,-4.9 -1.89,-9.3325 -4.945,-12.54 -1.5275,-1.60375 -3.34625,-2.90125 -5.36563,-3.79781 -1.00968,-0.44828 -0.83079,-0.61936 -1.92946,-0.85534 l 0.0323,6.14246 c 1.32423,0.65313 1.63221,1.30319 2.6341,2.47069 2.00374,2.335 3.24374,5.56 3.24374,9.12 0,7.12 -4.96,11.7321 -11.07,11.7321 -6.11,0 -11.07,-4.6121 -11.07,-11.7321 0,-3.56 1.24,-6.785 3.24375,-9.12 1.00188,-1.1675 1.30987,-1.81756 2.63409,-2.47069 l 0.0323,-6.14246 c -1.09867,0.23598 -0.91978,0.40706 -1.92946,0.85534 -2.01938,0.89656 -3.83813,2.19406 -5.36563,3.79781 -3.055,3.2075 -4.945,7.64 -4.945,12.54 0,9.8 8.0319,17.74 17.39995,17.74 9.36805,0 17.39995,-7.94 17.39995,-17.74 z"
         id="path2639" />
    </g>
    <g
       style="fill:#003271;stroke:#ffffff;stroke-linejoin:round"
       id="g2649">
      <path
         d="m 232.37,378.37 c 0,0 14.01,12.8 27.72,14.62 13.71,1.83 35.3,8.27 35.3,8.27 0,0 0.57,19.72 -0.1,21.43 -0.67,1.71 -1.1,2.16 -3.07,2.23 -6.39,0.23 -21.95,0.25 -38.88,-3.69 -22.13,-5.15 -43.84,-18.47 -43.84,-18.47 5.06,-2.08 17.3,-3.91 25.2,-5.87 z m 195.26,0 c 0,0 -14.01,12.8 -27.72,14.62 -13.71,1.83 -35.3,8.27 -35.3,8.27 0,0 -0.57,19.72 0.1,21.43 0.67,1.71 1.1,2.16 3.07,2.23 6.39,0.23 21.95,0.25 38.88,-3.69 22.13,-5.15 43.84,-18.47 43.84,-18.47 -5.06,-2.08 -17.3,-3.91 -25.2,-5.87 z"
         id="path2643" />
      <path
         d="m 277.26,407.99 c -2.44,-0.76 -3.86,0.83 -3.86,0.83 v -34.16 c 0,0 1.48,-1.34 4.06,-0.21 9.1,3.97 32.56,12.02 52.54,12.02 19.98,0 43.44,-8.05 52.54,-12.02 2.58,-1.13 4.06,0.2 4.06,0.2 v 34.17 c 0,0 -1.42,-1.6 -3.86,-0.83 -9.7,3.01 -35.06,10.5 -52.74,10.5 -17.68,0 -43.04,-7.49 -52.74,-10.49 z"
         id="path2645" />
      <path
         d="m 386.6,408.82 c 1.5,4 -22.18,7.7 -21.89,13.87 M 273.4,408.82 c -1.5,4 22.18,7.7 21.89,13.87"
         style="fill:#003271;stroke:#ffffff;stroke-linejoin:round"
         id="path2647" />
    </g>
    <g
       transform="translate(330,290)"
       style="fill:#fec500"
       id="g2668">
      <use
         xlink:href="#a"
         id="use2651"
         x="0"
         y="0"
         width="100%"
         height="100%" />
      <g
         id="b">
        <use
           xlink:href="#a"
           transform="rotate(27.69)"
           id="use2653"
           x="0"
           y="0"
           width="100%"
           height="100%" />
        <use
           xlink:href="#a"
           transform="rotate(55.38)"
           id="use2655"
           x="0"
           y="0"
           width="100%"
           height="100%" />
        <use
           xlink:href="#a"
           transform="rotate(83.08)"
           id="use2657"
           x="0"
           y="0"
           width="100%"
           height="100%" />
        <use
           xlink:href="#a"
           transform="rotate(110.77)"
           id="use2659"
           x="0"
           y="0"
           width="100%"
           height="100%" />
        <use
           xlink:href="#a"
           transform="rotate(138.46)"
           id="use2661"
           x="0"
           y="0"
           width="100%"
           height="100%" />
        <use
           xlink:href="#a"
           transform="rotate(166.15)"
           id="use2663"
           x="0"
           y="0"
           width="100%"
           height="100%" />
      </g>
      <use
         xlink:href="#b"
         transform="scale(-1,1)"
         id="use2666"
         x="0"
         y="0"
         width="100%"
         height="100%" />
    </g>
    <path
       style="fill:#fec500"
       d="m 363.24769,385.22079 c 5.6374,-1.53479 11.22405,-3.25877 16.78913,-5.04056 0.075,1.725 0.13445,3.45451 0.17836,5.18854 -3.53612,1.08867 -7.06855,2.1665 -10.60589,3.19608 0.009,1.27639 0.0153,2.55379 0.0177,3.8322 3.29303,-0.94678 6.58635,-1.93017 9.8877,-2.91723 0.0182,1.66053 0.023,3.32496 0.0143,4.9933 -3.31243,0.95506 -6.61285,1.91752 -9.91011,2.85049 -0.008,1.58887 -0.0217,3.1793 -0.0406,4.77127 3.64918,-1.0163 7.3018,-2.05932 10.97143,-3.07354 -0.0405,1.86586 -0.0988,3.73692 -0.17494,5.61315 -5.74708,1.51385 -11.46038,3.14525 -17.2,4.6514 0.0854,-8.03861 0.10974,-16.06031 0.0729,-24.0651 z m -25.9952,5.12814 c 3.60529,-0.33147 7.19337,-0.87419 10.75852,-1.55231 2.33303,-0.44377 4.06416,-0.19086 5.2129,0.83392 0.41329,0.36494 0.75131,0.8144 1.01489,1.34982 0.4753,0.96001 0.71141,2.19644 0.7091,3.71183 -0.002,1.49156 -0.24228,2.8397 -0.71979,4.03911 -0.29557,0.74911 -0.68337,1.44044 -1.16388,2.07114 -1.23673,1.63343 -3.14256,2.72897 -5.71979,3.18426 -1.16787,0.20631 -2.33996,0.39653 -3.51591,0.56861 -0.0124,2.95763 -0.0391,5.91716 -0.0801,8.87859 -2.16053,0.30347 -4.32969,0.54383 -6.50476,0.71091 0.10611,-7.94334 0.10905,-15.87531 0.009,-23.79588 z m 6.58347,9.36386 c 0.52649,-0.0787 1.0522,-0.16102 1.5771,-0.24672 1.2378,-0.2021 2.10579,-0.60722 2.60316,-1.18862 0.49813,-0.59323 0.74646,-1.27983 0.74473,-2.05298 -0.002,-0.75206 -0.22001,-1.34724 -0.6557,-1.7885 -0.43671,-0.44231 -1.25228,-0.54918 -2.45571,-0.34617 -0.61077,0.10302 -1.22246,0.20156 -1.83504,0.29526 0.0123,1.77523 0.0195,3.55114 0.0215,5.32773 z m -36.9293,0.11692 c -0.0196,-3.90049 0.91611,-6.71534 2.80948,-8.50356 1.90197,-1.79637 4.53761,-2.36434 7.94904,-1.89618 3.49042,0.479 6.1893,1.74311 8.09688,3.96165 1.90782,2.20803 2.87968,5.16862 2.8813,8.98399 0.001,2.76918 -0.42452,5.04003 -1.26525,6.79227 -0.83023,1.73993 -2.03268,3.07175 -3.595,3.95126 -1.55299,0.86954 -3.48657,1.18726 -5.79881,0.89735 -2.34743,-0.29431 -4.30026,-1.03559 -5.84544,-2.15559 -1.53835,-1.12024 -2.79319,-2.71736 -3.75959,-4.76511 -0.96632,-2.04755 -1.45861,-4.47882 -1.47261,-7.26608 z m 6.4019,1.28394 c 0.009,2.40037 0.41031,4.19489 1.19489,5.36499 0.79409,1.17163 1.86682,1.85703 3.21716,2.03152 1.38888,0.17947 2.46538,-0.21904 3.22606,-1.16638 0.76132,-0.94815 1.13931,-2.75394 1.13562,-5.40527 -0.003,-2.23347 -0.40645,-3.894 -1.21176,-5.0024 -0.79565,-1.11814 -1.87634,-1.75696 -3.24213,-1.94135 -1.30845,-0.17664 -2.35586,0.18307 -3.14602,1.1053 -0.78918,0.9211 -1.18281,2.58917 -1.17382,5.01359 z m -34.1861,-21.32373 c 2.05222,0.73628 4.11376,1.44751 6.18439,2.13121 -0.0664,2.78798 -0.10769,5.5863 -0.1239,8.39496 2.30316,0.72894 4.60826,1.43286 6.91533,2.10498 -0.002,-2.7936 0.007,-5.58044 0.0288,-8.3605 2.09952,0.62332 4.20801,1.21614 6.32528,1.77595 -0.004,7.94461 0.0388,15.92174 0.12923,23.9314 -2.12086,-0.54353 -4.2372,-1.11621 -6.34944,-1.70772 -0.053,-3.25833 -0.0903,-6.50762 -0.11189,-9.74785 -2.31154,-0.66399 -4.62292,-1.3564 -6.93434,-2.06802 0.022,3.26342 0.0775,6.54066 0.16648,9.83172 -2.09455,-0.61756 -4.18548,-1.24265 -6.27318,-1.8651 -0.34121,-8.25545 -0.32678,-16.39579 0.0433,-24.42103 z"
       id="path2670" />
  </g>
</svg>
